<svg version="1.1" xmlns="http://www.w3.org/2000/svg" xmlns:xlink="http://www.w3.org/1999/xlink" width="240.42819213867188" height="221.33782958984375"><defs></defs><g transform="translate(-171.03317260742188,113.01840209960938)"><rect fill="rgb(255,255,255)" stroke="none" x="0" y="0" width="240.42819213867188" height="221.33782958984375" fill-opacity="0" transform="translate(171.03317260742188,-113.01840209960938)"></rect><g transform="translate(120.96911850616439,111.06791780865642) rotate(6,0,0) translate(-120.96911850616439,-111.06791780865642) matrix(1,0,0,1,120.96911850616439,111.06791780865642)"><path fill="rgb(255,255,255)" fill-opacity="1" d="M155.09-230.27Q163.79-230.27 169.42-227.19Q175.04-224.12 176.39-219.17L176.39-219.17L176.39-217.82Q167.84-222.02 158.99-222.02L158.99-222.02Q140.84-222.02 126.97-205.07Q113.09-188.12 102.89-151.67L102.89-151.67Q98.54-136.22 93.89-114.99Q89.24-93.77 89.24-85.67L89.24-85.67Q89.24-81.92 90.59-79.89Q91.94-77.87 95.39-77.87L95.39-77.87Q99.59-77.87 104.84-80.79Q110.09-83.72 115.27-89.57Q120.44-95.42 124.34-103.67L124.34-103.67Q126.44-103.67 126.44-100.07L126.44-100.07Q126.44-94.52 121.34-87.62Q116.24-80.72 108.74-75.77Q101.24-70.82 94.34-70.82L94.34-70.82Q89.54-70.82 86.54-73.37Q83.54-75.92 82.34-80.57L82.34-80.57Q78.89-76.22 73.87-73.29Q68.84-70.37 64.34-70.37L64.34-70.37Q60.29-70.37 56.24-72.92Q52.19-75.47 49.64-79.29Q47.09-83.12 47.09-86.72L47.09-86.72Q50.84-99.32 54.89-118.97L54.89-118.97Q55.49-122.27 59.17-126.02Q62.84-129.77 68.09-132.24Q73.34-134.72 78.29-134.72L78.29-134.72Q83.99-134.72 89.99-131.42L89.99-131.42Q92.84-142.97 95.84-153.47L95.84-153.47Q103.64-180.47 112.19-197.27Q120.74-214.07 131.17-222.17Q141.59-230.27 155.09-230.27L155.09-230.27ZM82.79-96.02L83.69-100.37Q85.49-110.57 88.64-124.97L88.64-124.97Q83.54-128.27 78.44-128.27L78.44-128.27Q73.19-128.27 68.39-125.19Q63.59-122.12 61.64-116.57L61.64-116.57Q60.59-113.57 58.19-101.27L58.19-101.27Q56.69-93.77 55.04-87.17L55.04-87.17Q55.04-83.72 58.34-80.12Q61.64-76.52 65.39-76.52L65.39-76.52Q68.39-76.52 71.92-78.84Q75.44-81.17 78.52-85.59Q81.59-90.02 82.79-96.02L82.79-96.02ZM262.64-63.17Q264.89-63.17 266.39-60.47Q267.89-57.77 267.89-54.02L267.89-54.02Q267.89-47.72 263.47-42.39Q259.04-37.07 250.72-33.99Q242.39-30.92 231.14-30.92L231.14-30.92Q216.74-30.92 201.59-35.94Q186.44-40.97 173.17-48.02Q159.89-55.07 140.24-66.77L140.24-66.77Q132.44-71.57 128.54-73.82L128.54-73.82Q125.24-75.77 122.84-75.77L122.84-75.77Q120.59-75.77 118.87-74.57Q117.14-73.37 114.29-70.22L114.29-70.22Q113.24-70.22 111.14-72.47Q109.04-74.72 109.04-75.62L109.04-75.62Q122.54-86.12 132.52-95.72Q142.49-105.32 152.99-117.62L152.99-117.62Q149.69-116.27 145.64-115.37Q141.59-114.47 137.99-114.47L137.99-114.47Q131.54-114.47 127.64-117.54Q123.74-120.62 123.74-125.72L123.74-125.72Q123.74-129.47 125.77-132.47Q127.79-135.47 131.24-135.47L131.24-135.47Q132.29-135.47 133.19-135.09Q134.09-134.72 134.24-134.12L134.24-134.12Q133.34-133.07 132.67-131.27Q131.99-129.47 131.99-127.22L131.99-127.22Q131.99-120.62 140.24-120.62L140.24-120.62Q146.24-120.62 152.24-123.84Q158.24-127.07 163.34-132.77L163.34-132.77Q165.74-132.77 167.02-131.72Q168.29-130.67 168.29-128.87L168.29-128.87Q168.29-126.92 166.19-123.92L166.19-123.92Q160.79-116.12 147.59-102.02Q134.39-87.92 126.59-81.62L126.59-81.62Q156.14-62.27 183.67-49.89Q211.19-37.52 229.64-37.52L229.64-37.52Q254.69-37.52 262.64-63.17L262.64-63.17ZM185.09-70.07Q181.94-70.07 180.07-72.09Q178.19-74.12 178.19-77.72L178.19-77.72Q178.19-81.92 180.59-84.77Q182.99-87.62 186.89-87.62L186.89-87.62Q190.04-87.62 191.92-85.67Q193.79-83.72 193.79-80.12L193.79-80.12Q193.79-75.92 191.39-72.99Q188.99-70.07 185.09-70.07L185.09-70.07Z"></path></g></g></svg>